# xmcd
#
# Track frame offsets:
#	150
#	17705
#	42413
#	64650
#	87713
#	106413
#	127058
#	157890
#	172400
#	193943
#
# Disc length: 2861 seconds
#
# Revision: 2
# Processed by: cddbd v1.5.2PL0 Copyright (c) Steve Scherf et al.
# Submitted via: EZCDAudioConverter 8.0.2.1
#
DISCID=910b2b0a
DTITLE=Various Artist - st. Song Ngọc. Tình Muộn
DYEAR=1993
DGENRE=Pop
TTITLE0=Hương Lan, Duy Quang - Tình buồn xứ lạ
TTITLE1=Hương Lan - Tình Muộn
TTITLE2=Elvis Phương - Thứ sáu buồn
TTITLE3=Duy Quang - Đàn bà
TTITLE4=Thanh Thúy - Những con đường tôi đã đi qua
TTITLE5=Duy Quang - Chào bạn mới
TTITLE6=Lệ Thu - Người xưa ơi nhớ quá
TTITLE7=Duy Quang - Đoản ca hồng
TTITLE8=Julie - Xin cảm ơn một buổi chiều
TTITLE9=Elvis Phương - Tình bạn, tình yêu
EXTD=
EXTT0=
EXTT1=
EXTT2=
EXTT3=
EXTT4=
EXTT5=
EXTT6=
EXTT7=
EXTT8=
EXTT9=
PLAYORDER=
